<?xml version="1.0" encoding="UTF-8" standalone="no"?>
<!DOCTYPE svg PUBLIC "-//W3C//DTD SVG 1.1//EN"
 "http://www.w3.org/Graphics/SVG/1.1/DTD/svg11.dtd">
<!-- Generated by graphviz version 2.44.1 (20200629.0846)
 -->
<!-- Title: result Pages: 1 -->
<svg width="352pt" height="291pt"
 viewBox="0.00 0.00 351.99 291.00" xmlns="http://www.w3.org/2000/svg" xmlns:xlink="http://www.w3.org/1999/xlink">
<g id="graph0" class="graph" transform="scale(1 1) rotate(0) translate(4 287)">
<title>result</title>
<polygon fill="white" stroke="transparent" points="-4,4 -4,-287 347.99,-287 347.99,4 -4,4"/>
<!-- 1 -->
<g id="node1" class="node">
<title>1</title>
<ellipse fill="none" stroke="black" cx="208.99" cy="-265" rx="27" ry="18"/>
<text text-anchor="middle" x="208.99" y="-261.3" font-family="Times,serif" font-size="14.00">1.00</text>
</g>
<!-- 2 -->
<g id="node2" class="node">
<title>2</title>
<ellipse fill="none" stroke="black" cx="163.99" cy="-192" rx="27" ry="18"/>
<text text-anchor="middle" x="163.99" y="-188.3" font-family="Times,serif" font-size="14.00">1.00</text>
</g>
<!-- 1&#45;&gt;2 -->
<g id="edge1" class="edge">
<title>1&#45;&gt;2</title>
<path fill="none" stroke="grey" d="M194.34,-249.63C187.54,-240.73 179.81,-229.04 173.71,-218.6"/>
<polygon fill="grey" stroke="grey" points="176.75,-216.87 168.83,-209.84 170.64,-220.28 176.75,-216.87"/>
</g>
<!-- 3 -->
<g id="node3" class="node">
<title>3</title>
<ellipse fill="none" stroke="black" cx="260.99" cy="-18" rx="27" ry="18"/>
<text text-anchor="middle" x="260.99" y="-14.3" font-family="Times,serif" font-size="14.00">1.00</text>
</g>
<!-- 1&#45;&gt;3 -->
<g id="edge3" class="edge">
<title>1&#45;&gt;3</title>
<path fill="none" stroke="blue" d="M228.32,-252.19C242.01,-242.66 259.42,-227.91 267.99,-210 297.99,-147.37 291.77,-121.86 276.99,-54 276.32,-50.9 275.34,-47.75 274.2,-44.67"/>
<polygon fill="blue" stroke="blue" points="277.32,-43.04 270.16,-35.23 270.88,-45.8 277.32,-43.04"/>
<text text-anchor="middle" x="300.49" y="-144.8" font-family="Times,serif" font-size="14.00">0.75</text>
</g>
<!-- 4 -->
<g id="node4" class="node">
<title>4</title>
<ellipse fill="none" stroke="black" cx="49.99" cy="-105" rx="27" ry="18"/>
<text text-anchor="middle" x="49.99" y="-101.3" font-family="Times,serif" font-size="14.00">2.00</text>
</g>
<!-- 1&#45;&gt;4 -->
<g id="edge5" class="edge">
<title>1&#45;&gt;4</title>
<path fill="none" stroke="grey" d="M182.21,-262.17C135.97,-258.52 43.76,-248.91 18.99,-229 -11.49,-204.49 0.89,-175.67 18.99,-141 21.42,-136.35 24.6,-131.82 27.99,-127.65"/>
<polygon fill="grey" stroke="grey" points="30.65,-129.93 34.64,-120.11 25.4,-125.29 30.65,-129.93"/>
</g>
<!-- 5 -->
<g id="node5" class="node">
<title>5</title>
<ellipse fill="none" stroke="black" cx="196.99" cy="-105" rx="27" ry="18"/>
<text text-anchor="middle" x="196.99" y="-101.3" font-family="Times,serif" font-size="14.00">1.00</text>
</g>
<!-- 1&#45;&gt;5 -->
<g id="edge7" class="edge">
<title>1&#45;&gt;5</title>
<path fill="none" stroke="blue" d="M209.23,-246.81C209.35,-222.96 208.8,-178.52 203.99,-141 203.66,-138.42 203.25,-135.74 202.8,-133.07"/>
<polygon fill="blue" stroke="blue" points="206.19,-132.19 200.89,-123.01 199.31,-133.49 206.19,-132.19"/>
<text text-anchor="middle" x="220.49" y="-188.3" font-family="Times,serif" font-size="14.00">0.25</text>
</g>
<!-- 2&#45;&gt;1 -->
<g id="edge2" class="edge">
<title>2&#45;&gt;1</title>
<path fill="none" stroke="grey" d="M178.6,-207.31C185.41,-216.22 193.16,-227.93 199.28,-238.4"/>
<polygon fill="grey" stroke="grey" points="196.24,-240.14 204.17,-247.17 202.36,-236.74 196.24,-240.14"/>
</g>
<!-- 2&#45;&gt;3 -->
<g id="edge14" class="edge">
<title>2&#45;&gt;3</title>
<path fill="none" stroke="grey" d="M177.51,-176.11C191.58,-163.72 212.39,-144.64 223.99,-123 237.2,-98.36 244.53,-67.02 250.14,-45.22"/>
<polygon fill="grey" stroke="grey" points="253.58,-45.91 252.77,-35.35 246.81,-44.11 253.58,-45.91"/>
</g>
<!-- 2&#45;&gt;4 -->
<g id="edge8" class="edge">
<title>2&#45;&gt;4</title>
<path fill="none" stroke="blue" d="M146.68,-178.09C127.76,-163.99 97.27,-141.25 75.59,-125.09"/>
<polygon fill="blue" stroke="blue" points="77.58,-122.2 67.47,-119.03 73.4,-127.81 77.58,-122.2"/>
<text text-anchor="middle" x="125.49" y="-144.8" font-family="Times,serif" font-size="14.00">1.00</text>
</g>
<!-- 2&#45;&gt;5 -->
<g id="edge11" class="edge">
<title>2&#45;&gt;5</title>
<path fill="none" stroke="grey" d="M176.5,-175.79C180.75,-169.92 185.14,-162.95 187.99,-156 190.91,-148.9 192.88,-140.85 194.22,-133.32"/>
<polygon fill="grey" stroke="grey" points="197.72,-133.57 195.71,-123.17 190.79,-132.55 197.72,-133.57"/>
</g>
<!-- 3&#45;&gt;1 -->
<g id="edge4" class="edge">
<title>3&#45;&gt;1</title>
<path fill="none" stroke="blue" d="M276.18,-33.2C281.82,-39.16 287.85,-46.46 291.99,-54 308.34,-83.77 325.53,-120.98 316.99,-156 307.79,-193.72 300.05,-205.69 268.99,-229 259.54,-236.09 248.53,-242.89 238.55,-248.57"/>
<polygon fill="blue" stroke="blue" points="236.79,-245.54 229.73,-253.45 240.18,-251.67 236.79,-245.54"/>
<text text-anchor="middle" x="331.49" y="-144.8" font-family="Times,serif" font-size="14.00">0.25</text>
</g>
<!-- 3&#45;&gt;2 -->
<g id="edge13" class="edge">
<title>3&#45;&gt;2</title>
<path fill="none" stroke="grey" d="M265.11,-36.09C264.6,-57.45 257.19,-94.65 241.99,-123 230.76,-143.96 210.9,-162.5 193.84,-174.91"/>
<polygon fill="grey" stroke="grey" points="191.5,-172.27 185.24,-180.82 195.46,-178.04 191.5,-172.27"/>
</g>
<!-- 3&#45;&gt;5 -->
<g id="edge15" class="edge">
<title>3&#45;&gt;5</title>
<path fill="none" stroke="blue" d="M240.4,-29.94C230.87,-35.93 220.12,-44.13 212.99,-54 208.04,-60.86 204.58,-69.32 202.17,-77.31"/>
<polygon fill="blue" stroke="blue" points="198.77,-76.48 199.66,-87.04 205.55,-78.23 198.77,-76.48"/>
<text text-anchor="middle" x="225.49" y="-57.8" font-family="Times,serif" font-size="14.00">0.75</text>
</g>
<!-- 4&#45;&gt;1 -->
<g id="edge6" class="edge">
<title>4&#45;&gt;1</title>
<path fill="none" stroke="blue" d="M50.04,-123.32C50.64,-133.27 52.39,-145.77 56.99,-156 69.92,-184.76 78.25,-190.47 102.99,-210 125.45,-227.72 154.63,-242.08 176.69,-251.52"/>
<polygon fill="blue" stroke="blue" points="175.4,-254.77 185.97,-255.38 178.09,-248.31 175.4,-254.77"/>
<text text-anchor="middle" x="115.49" y="-188.3" font-family="Times,serif" font-size="14.00">0.50</text>
</g>
<!-- 4&#45;&gt;2 -->
<g id="edge9" class="edge">
<title>4&#45;&gt;2</title>
<path fill="none" stroke="blue" d="M53.56,-123.28C56.58,-133.96 61.91,-147.25 70.99,-156 86.48,-170.91 108.92,-179.6 127.88,-184.59"/>
<polygon fill="blue" stroke="blue" points="127.17,-188.02 137.71,-186.94 128.79,-181.21 127.17,-188.02"/>
<text text-anchor="middle" x="83.49" y="-144.8" font-family="Times,serif" font-size="14.00">0.50</text>
</g>
<!-- 5&#45;&gt;1 -->
<g id="edge10" class="edge">
<title>5&#45;&gt;1</title>
<path fill="none" stroke="blue" d="M209.16,-121.11C218.87,-134.22 231.69,-154.15 236.99,-174 241.13,-189.46 240.78,-194.46 236.99,-210 234.51,-220.2 229.72,-230.63 224.81,-239.56"/>
<polygon fill="blue" stroke="blue" points="221.75,-237.86 219.73,-248.26 227.79,-241.39 221.75,-237.86"/>
<text text-anchor="middle" x="251.49" y="-188.3" font-family="Times,serif" font-size="14.00">0.25</text>
</g>
<!-- 5&#45;&gt;2 -->
<g id="edge12" class="edge">
<title>5&#45;&gt;2</title>
<path fill="none" stroke="blue" d="M178.28,-118.03C170.81,-123.95 163.03,-131.8 158.99,-141 155.86,-148.14 155.53,-156.39 156.42,-164.1"/>
<polygon fill="blue" stroke="blue" points="153.01,-164.92 158.24,-174.13 159.9,-163.67 153.01,-164.92"/>
<text text-anchor="middle" x="171.49" y="-144.8" font-family="Times,serif" font-size="14.00">0.50</text>
</g>
<!-- 5&#45;&gt;3 -->
<g id="edge16" class="edge">
<title>5&#45;&gt;3</title>
<path fill="none" stroke="blue" d="M183.45,-89.25C175.63,-78.88 168.66,-64.95 175.99,-54 186.83,-37.82 206.66,-29.11 224.43,-24.43"/>
<polygon fill="blue" stroke="blue" points="225.61,-27.75 234.58,-22.11 224.05,-20.92 225.61,-27.75"/>
<text text-anchor="middle" x="188.49" y="-57.8" font-family="Times,serif" font-size="14.00">0.25</text>
</g>
</g>
</svg>
